<?xml version="1.0" encoding="UTF-8" standalone="no"?>
<!DOCTYPE svg PUBLIC "-//W3C//DTD SVG 1.1//EN"
 "http://www.w3.org/Graphics/SVG/1.1/DTD/svg11.dtd">
<!-- Generated by graphviz version 13.1.2 (20250808.2320)
 -->
<!-- Title: Causal Pages: 1 -->
<svg width="766pt" height="723pt"
 viewBox="0.00 0.00 766.00 723.00" xmlns="http://www.w3.org/2000/svg" xmlns:xlink="http://www.w3.org/1999/xlink">
<g id="graph0" class="graph" transform="scale(1 1) rotate(0) translate(7.2 716.2)">
<title>Causal</title>
<polygon fill="white" stroke="none" points="-7.2,7.2 -7.2,-716.2 758.9,-716.2 758.9,7.2 -7.2,7.2"/>
<!-- PXF_FLW_ADJ -->
<g id="node1" class="node">
<title>PXF_FLW_ADJ</title>
<path fill="#e8f5e9" stroke="#2e7d32" d="M74.88,-333C74.88,-333 13.12,-333 13.12,-333 7.12,-333 1.12,-327 1.12,-321 1.12,-321 1.12,-309 1.12,-309 1.12,-303 7.12,-297 13.12,-297 13.12,-297 74.88,-297 74.88,-297 80.88,-297 86.88,-303 86.88,-309 86.88,-309 86.88,-321 86.88,-321 86.88,-327 80.88,-333 74.88,-333"/>
<text xml:space="preserve" text-anchor="middle" x="44" y="-311.5" font-family="Inter,Helvetica,Arial" font-size="10.00">PXF_FLW_ADJ</text>
</g>
<!-- MXR_CMP_RAT -->
<g id="node4" class="node">
<title>MXR_CMP_RAT</title>
<ellipse fill="#e3f2fd" stroke="#1565c0" cx="298.34" cy="-315" rx="54.72" ry="18"/>
<text xml:space="preserve" text-anchor="middle" x="298.34" y="-311.5" font-family="Inter,Helvetica,Arial" font-size="10.00">MXR_CMP_RAT</text>
</g>
<!-- PXF_FLW_ADJ&#45;&gt;MXR_CMP_RAT -->
<g id="edge1" class="edge">
<title>PXF_FLW_ADJ&#45;&gt;MXR_CMP_RAT</title>
<path fill="none" stroke="#455a64" stroke-width="1.2" d="M87.24,-315C127.32,-315 188.08,-315 233.97,-315"/>
<polygon fill="#455a64" stroke="#455a64" stroke-width="1.2" points="233.71,-317.8 241.71,-315 233.71,-312.2 233.71,-317.8"/>
<text xml:space="preserve" text-anchor="middle" x="161.75" y="-316.95" font-family="Inter,Helvetica,Arial" font-size="9.00">w=0.7538013514255955</text>
</g>
<!-- PXF_ROT_DRV -->
<g id="node2" class="node">
<title>PXF_ROT_DRV</title>
<path fill="#e8f5e9" stroke="#2e7d32" d="M76,-455C76,-455 12,-455 12,-455 6,-455 0,-449 0,-443 0,-443 0,-431 0,-431 0,-425 6,-419 12,-419 12,-419 76,-419 76,-419 82,-419 88,-425 88,-431 88,-431 88,-443 88,-443 88,-449 82,-455 76,-455"/>
<text xml:space="preserve" text-anchor="middle" x="44" y="-433.5" font-family="Inter,Helvetica,Arial" font-size="10.00">PXF_ROT_DRV</text>
</g>
<!-- MXR_THK_SCAN -->
<g id="node5" class="node">
<title>MXR_THK_SCAN</title>
<ellipse fill="#e3f2fd" stroke="#1565c0" cx="298.34" cy="-376" rx="58.78" ry="18"/>
<text xml:space="preserve" text-anchor="middle" x="298.34" y="-372.5" font-family="Inter,Helvetica,Arial" font-size="10.00">MXR_THK_SCAN</text>
</g>
<!-- PXF_ROT_DRV&#45;&gt;MXR_THK_SCAN -->
<g id="edge2" class="edge">
<title>PXF_ROT_DRV&#45;&gt;MXR_THK_SCAN</title>
<path fill="none" stroke="#455a64" stroke-width="1.2" d="M88.33,-425.9C95.56,-424.08 102.99,-422.22 110,-420.5 154.14,-409.66 204.25,-397.78 241.52,-389.02"/>
<polygon fill="#455a64" stroke="#455a64" stroke-width="1.2" points="241.8,-391.83 248.95,-387.28 240.52,-386.38 241.8,-391.83"/>
<text xml:space="preserve" text-anchor="middle" x="161.75" y="-422.45" font-family="Inter,Helvetica,Arial" font-size="9.00">w=0.5122940395469079</text>
</g>
<!-- MXR_MASS_CHK -->
<g id="node6" class="node">
<title>MXR_MASS_CHK</title>
<ellipse fill="#e3f2fd" stroke="#1565c0" cx="298.34" cy="-437" rx="59.68" ry="18"/>
<text xml:space="preserve" text-anchor="middle" x="298.34" y="-433.5" font-family="Inter,Helvetica,Arial" font-size="10.00">MXR_MASS_CHK</text>
</g>
<!-- PXF_ROT_DRV&#45;&gt;MXR_MASS_CHK -->
<g id="edge3" class="edge">
<title>PXF_ROT_DRV&#45;&gt;MXR_MASS_CHK</title>
<path fill="none" stroke="#455a64" stroke-width="1.2" d="M88.38,-437C126.98,-437 184.08,-437 228.84,-437"/>
<polygon fill="#455a64" stroke="#455a64" stroke-width="1.2" points="228.67,-439.8 236.67,-437 228.67,-434.2 228.67,-439.8"/>
<text xml:space="preserve" text-anchor="middle" x="161.75" y="-438.95" font-family="Inter,Helvetica,Arial" font-size="9.00">w=0.5403285249162567</text>
</g>
<!-- MXR_STN_PROBE -->
<g id="node7" class="node">
<title>MXR_STN_PROBE</title>
<ellipse fill="#e3f2fd" stroke="#1565c0" cx="298.34" cy="-498" rx="62.84" ry="18"/>
<text xml:space="preserve" text-anchor="middle" x="298.34" y="-494.5" font-family="Inter,Helvetica,Arial" font-size="10.00">MXR_STN_PROBE</text>
</g>
<!-- PXF_ROT_DRV&#45;&gt;MXR_STN_PROBE -->
<g id="edge4" class="edge">
<title>PXF_ROT_DRV&#45;&gt;MXR_STN_PROBE</title>
<path fill="none" stroke="#455a64" stroke-width="1.2" d="M88.32,-448.49C95.55,-450.36 102.98,-452.26 110,-454 153.19,-464.72 202.16,-476.2 239.2,-484.74"/>
<polygon fill="#455a64" stroke="#455a64" stroke-width="1.2" points="238.15,-487.37 246.58,-486.44 239.41,-481.92 238.15,-487.37"/>
<text xml:space="preserve" text-anchor="middle" x="161.75" y="-480.34" font-family="Inter,Helvetica,Arial" font-size="9.00">w=0.7095774583839263</text>
</g>
<!-- PXF_TMP_SET -->
<g id="node3" class="node">
<title>PXF_TMP_SET</title>
<path fill="#e8f5e9" stroke="#2e7d32" d="M75.25,-648C75.25,-648 12.75,-648 12.75,-648 6.75,-648 0.75,-642 0.75,-636 0.75,-636 0.75,-624 0.75,-624 0.75,-618 6.75,-612 12.75,-612 12.75,-612 75.25,-612 75.25,-612 81.25,-612 87.25,-618 87.25,-624 87.25,-624 87.25,-636 87.25,-636 87.25,-642 81.25,-648 75.25,-648"/>
<text xml:space="preserve" text-anchor="middle" x="44" y="-626.5" font-family="Inter,Helvetica,Arial" font-size="10.00">PXF_TMP_SET</text>
</g>
<!-- MXR_VIS_PROBE -->
<g id="node8" class="node">
<title>MXR_VIS_PROBE</title>
<ellipse fill="#e3f2fd" stroke="#1565c0" cx="298.34" cy="-630" rx="60.58" ry="18"/>
<text xml:space="preserve" text-anchor="middle" x="298.34" y="-626.5" font-family="Inter,Helvetica,Arial" font-size="10.00">MXR_VIS_PROBE</text>
</g>
<!-- PXF_TMP_SET&#45;&gt;MXR_VIS_PROBE -->
<g id="edge5" class="edge">
<title>PXF_TMP_SET&#45;&gt;MXR_VIS_PROBE</title>
<path fill="none" stroke="#455a64" stroke-width="1.2" d="M87.52,-630C125.86,-630 182.96,-630 227.92,-630"/>
<polygon fill="#455a64" stroke="#455a64" stroke-width="1.2" points="227.79,-632.8 235.79,-630 227.79,-627.2 227.79,-632.8"/>
<text xml:space="preserve" text-anchor="middle" x="161.75" y="-631.95" font-family="Inter,Helvetica,Arial" font-size="9.00">w=0.7314246580842083</text>
</g>
<!-- CRM_DIM_B1 -->
<g id="node18" class="node">
<title>CRM_DIM_B1</title>
<ellipse fill="#e3f2fd" stroke="#1565c0" cx="568.81" cy="-309" rx="48.41" ry="18"/>
<text xml:space="preserve" text-anchor="middle" x="568.81" y="-305.5" font-family="Inter,Helvetica,Arial" font-size="10.00">CRM_DIM_B1</text>
</g>
<!-- MXR_CMP_RAT&#45;&gt;CRM_DIM_B1 -->
<g id="edge6" class="edge">
<title>MXR_CMP_RAT&#45;&gt;CRM_DIM_B1</title>
<path fill="none" stroke="#455a64" stroke-width="1.2" d="M353.35,-313.79C398.95,-312.77 464.06,-311.32 510.56,-310.28"/>
<polygon fill="#455a64" stroke="#455a64" stroke-width="1.2" points="510.44,-313.08 518.37,-310.1 510.31,-307.48 510.44,-313.08"/>
<text xml:space="preserve" text-anchor="middle" x="434.93" y="-315.01" font-family="Inter,Helvetica,Arial" font-size="9.00">w=0.554051290069793</text>
</g>
<!-- CRM_DIM_C1 -->
<g id="node21" class="node">
<title>CRM_DIM_C1</title>
<ellipse fill="#e3f2fd" stroke="#1565c0" cx="568.81" cy="-549" rx="48.86" ry="18"/>
<text xml:space="preserve" text-anchor="middle" x="568.81" y="-545.5" font-family="Inter,Helvetica,Arial" font-size="10.00">CRM_DIM_C1</text>
</g>
<!-- MXR_THK_SCAN&#45;&gt;CRM_DIM_C1 -->
<g id="edge7" class="edge">
<title>MXR_THK_SCAN&#45;&gt;CRM_DIM_C1</title>
<path fill="none" stroke="#455a64" stroke-width="1.2" d="M331.49,-391.23C341.16,-396.04 351.71,-401.54 361.18,-407 419,-440.35 438.1,-443.72 486.68,-489.5 498.58,-500.72 496.17,-508.47 508.68,-519 514.01,-523.49 520.12,-527.53 526.35,-531.08"/>
<polygon fill="#455a64" stroke="#455a64" stroke-width="1.2" points="524.87,-533.47 533.25,-534.77 527.51,-528.53 524.87,-533.47"/>
<text xml:space="preserve" text-anchor="middle" x="434.93" y="-491.45" font-family="Inter,Helvetica,Arial" font-size="9.00">w=0.8160805991700641</text>
</g>
<!-- CRM_DIM_C3 -->
<g id="node23" class="node">
<title>CRM_DIM_C3</title>
<ellipse fill="#e3f2fd" stroke="#1565c0" cx="568.81" cy="-620" rx="48.86" ry="18"/>
<text xml:space="preserve" text-anchor="middle" x="568.81" y="-616.5" font-family="Inter,Helvetica,Arial" font-size="10.00">CRM_DIM_C3</text>
</g>
<!-- MXR_VIS_PROBE&#45;&gt;CRM_DIM_C3 -->
<g id="edge8" class="edge">
<title>MXR_VIS_PROBE&#45;&gt;CRM_DIM_C3</title>
<path fill="none" stroke="#455a64" stroke-width="1.2" d="M358.92,-627.78C404.11,-626.1 465.86,-623.8 510.48,-622.14"/>
<polygon fill="#455a64" stroke="#455a64" stroke-width="1.2" points="510.31,-624.94 518.2,-621.85 510.11,-619.35 510.31,-624.94"/>
<text xml:space="preserve" text-anchor="middle" x="434.93" y="-628.72" font-family="Inter,Helvetica,Arial" font-size="9.00">w=0.54019053180747</text>
</g>
<!-- CRP_EN_DRV -->
<g id="node9" class="node">
<title>CRP_EN_DRV</title>
<path fill="#e8f5e9" stroke="#2e7d32" d="M328.09,-190C328.09,-190 268.59,-190 268.59,-190 262.59,-190 256.59,-184 256.59,-178 256.59,-178 256.59,-166 256.59,-166 256.59,-160 262.59,-154 268.59,-154 268.59,-154 328.09,-154 328.09,-154 334.09,-154 340.09,-160 340.09,-166 340.09,-166 340.09,-178 340.09,-178 340.09,-184 334.09,-190 328.09,-190"/>
<text xml:space="preserve" text-anchor="middle" x="298.34" y="-168.5" font-family="Inter,Helvetica,Arial" font-size="10.00">CRP_EN_DRV</text>
</g>
<!-- CRM_DIM_CHK -->
<g id="node15" class="node">
<title>CRM_DIM_CHK</title>
<ellipse fill="#e3f2fd" stroke="#1565c0" cx="568.81" cy="-177" rx="54.27" ry="18"/>
<text xml:space="preserve" text-anchor="middle" x="568.81" y="-173.5" font-family="Inter,Helvetica,Arial" font-size="10.00">CRM_DIM_CHK</text>
</g>
<!-- CRP_EN_DRV&#45;&gt;CRM_DIM_CHK -->
<g id="edge9" class="edge">
<title>CRP_EN_DRV&#45;&gt;CRM_DIM_CHK</title>
<path fill="none" stroke="#455a64" stroke-width="1.2" d="M340.41,-172.76C384.15,-173.58 453.94,-174.88 504.68,-175.82"/>
<polygon fill="#455a64" stroke="#455a64" stroke-width="1.2" points="504.38,-178.62 512.43,-175.97 504.48,-173.02 504.38,-178.62"/>
<text xml:space="preserve" text-anchor="middle" x="434.93" y="-177.33" font-family="Inter,Helvetica,Arial" font-size="9.00">w=0.5535710078923093</text>
</g>
<!-- CRM_NDP_SCAN -->
<g id="node16" class="node">
<title>CRM_NDP_SCAN</title>
<ellipse fill="#e3f2fd" stroke="#1565c0" cx="568.81" cy="-47" rx="60.13" ry="18"/>
<text xml:space="preserve" text-anchor="middle" x="568.81" y="-43.5" font-family="Inter,Helvetica,Arial" font-size="10.00">CRM_NDP_SCAN</text>
</g>
<!-- CRP_EN_DRV&#45;&gt;CRM_NDP_SCAN -->
<g id="edge10" class="edge">
<title>CRP_EN_DRV&#45;&gt;CRM_NDP_SCAN</title>
<path fill="none" stroke="#455a64" stroke-width="1.2" d="M334.5,-153.6C344.05,-147.38 353.78,-139.76 361.18,-131 376.72,-112.61 364.29,-96.42 383.18,-81.5 415.73,-55.78 461.53,-47.11 499.36,-44.88"/>
<polygon fill="#455a64" stroke="#455a64" stroke-width="1.2" points="499.12,-47.7 506.98,-44.53 498.87,-42.1 499.12,-47.7"/>
<text xml:space="preserve" text-anchor="middle" x="434.93" y="-83.45" font-family="Inter,Helvetica,Arial" font-size="9.00">w=0.6663945646582681</text>
</g>
<!-- CRP_RAT_CTL -->
<g id="node10" class="node">
<title>CRP_RAT_CTL</title>
<path fill="#e8f5e9" stroke="#2e7d32" d="M329.59,-36C329.59,-36 267.09,-36 267.09,-36 261.09,-36 255.09,-30 255.09,-24 255.09,-24 255.09,-12 255.09,-12 255.09,-6 261.09,0 267.09,0 267.09,0 329.59,0 329.59,0 335.59,0 341.59,-6 341.59,-12 341.59,-12 341.59,-24 341.59,-24 341.59,-30 335.59,-36 329.59,-36"/>
<text xml:space="preserve" text-anchor="middle" x="298.34" y="-14.5" font-family="Inter,Helvetica,Arial" font-size="10.00">CRP_RAT_CTL</text>
</g>
<!-- CRP_RAT_CTL&#45;&gt;CRM_NDP_SCAN -->
<g id="edge11" class="edge">
<title>CRP_RAT_CTL&#45;&gt;CRM_NDP_SCAN</title>
<path fill="none" stroke="#455a64" stroke-width="1.2" d="M341.74,-13.66C379.95,-10.74 437.51,-8.84 486.68,-17.5 499.62,-19.78 513.21,-23.96 525.49,-28.46"/>
<polygon fill="#455a64" stroke="#455a64" stroke-width="1.2" points="524.42,-31.05 532.89,-31.3 526.42,-25.82 524.42,-31.05"/>
<text xml:space="preserve" text-anchor="middle" x="434.93" y="-19.45" font-family="Inter,Helvetica,Arial" font-size="9.00">w=0.5041081305675421</text>
</g>
<!-- CRP_PRS_SET -->
<g id="node11" class="node">
<title>CRP_PRS_SET</title>
<path fill="#e8f5e9" stroke="#2e7d32" d="M330.71,-118C330.71,-118 265.96,-118 265.96,-118 259.96,-118 253.96,-112 253.96,-106 253.96,-106 253.96,-94 253.96,-94 253.96,-88 259.96,-82 265.96,-82 265.96,-82 330.71,-82 330.71,-82 336.71,-82 342.71,-88 342.71,-94 342.71,-94 342.71,-106 342.71,-106 342.71,-112 336.71,-118 330.71,-118"/>
<text xml:space="preserve" text-anchor="middle" x="298.34" y="-96.5" font-family="Inter,Helvetica,Arial" font-size="10.00">CRP_PRS_SET</text>
</g>
<!-- CRM_DIM_B3 -->
<g id="node20" class="node">
<title>CRM_DIM_B3</title>
<ellipse fill="#e3f2fd" stroke="#1565c0" cx="568.81" cy="-108" rx="48.41" ry="18"/>
<text xml:space="preserve" text-anchor="middle" x="568.81" y="-104.5" font-family="Inter,Helvetica,Arial" font-size="10.00">CRM_DIM_B3</text>
</g>
<!-- CRP_PRS_SET&#45;&gt;CRM_DIM_B3 -->
<g id="edge12" class="edge">
<title>CRP_PRS_SET&#45;&gt;CRM_DIM_B3</title>
<path fill="none" stroke="#455a64" stroke-width="1.2" d="M342.91,-98.53C380.9,-97.58 437.47,-96.93 486.68,-99.5 495.11,-99.94 504,-100.64 512.7,-101.44"/>
<polygon fill="#455a64" stroke="#455a64" stroke-width="1.2" points="512.35,-104.22 520.59,-102.22 512.9,-98.65 512.35,-104.22"/>
<text xml:space="preserve" text-anchor="middle" x="434.93" y="-101.45" font-family="Inter,Helvetica,Arial" font-size="9.00">w=0.7909516995034587</text>
</g>
<!-- CRP_TMP_MOD -->
<g id="node12" class="node">
<title>CRP_TMP_MOD</title>
<path fill="#e8f5e9" stroke="#2e7d32" d="M332.59,-709C332.59,-709 264.09,-709 264.09,-709 258.09,-709 252.09,-703 252.09,-697 252.09,-697 252.09,-685 252.09,-685 252.09,-679 258.09,-673 264.09,-673 264.09,-673 332.59,-673 332.59,-673 338.59,-673 344.59,-679 344.59,-685 344.59,-685 344.59,-697 344.59,-697 344.59,-703 338.59,-709 332.59,-709"/>
<text xml:space="preserve" text-anchor="middle" x="298.34" y="-687.5" font-family="Inter,Helvetica,Arial" font-size="10.00">CRP_TMP_MOD</text>
</g>
<!-- CRM_DIM_A4 -->
<g id="node17" class="node">
<title>CRM_DIM_A4</title>
<ellipse fill="#e3f2fd" stroke="#1565c0" cx="568.81" cy="-691" rx="48.41" ry="18"/>
<text xml:space="preserve" text-anchor="middle" x="568.81" y="-687.5" font-family="Inter,Helvetica,Arial" font-size="10.00">CRM_DIM_A4</text>
</g>
<!-- CRP_TMP_MOD&#45;&gt;CRM_DIM_A4 -->
<g id="edge13" class="edge">
<title>CRP_TMP_MOD&#45;&gt;CRM_DIM_A4</title>
<path fill="none" stroke="#455a64" stroke-width="1.2" d="M344.88,-691C390.61,-691 461.18,-691 510.64,-691"/>
<polygon fill="#455a64" stroke="#455a64" stroke-width="1.2" points="510.42,-693.8 518.42,-691 510.42,-688.2 510.42,-693.8"/>
<text xml:space="preserve" text-anchor="middle" x="434.93" y="-692.95" font-family="Inter,Helvetica,Arial" font-size="9.00">w=0.6917906559015948</text>
</g>
<!-- CRP_VOL_INJ -->
<g id="node13" class="node">
<title>CRP_VOL_INJ</title>
<path fill="#e8f5e9" stroke="#2e7d32" d="M328.09,-251C328.09,-251 268.59,-251 268.59,-251 262.59,-251 256.59,-245 256.59,-239 256.59,-239 256.59,-227 256.59,-227 256.59,-221 262.59,-215 268.59,-215 268.59,-215 328.09,-215 328.09,-215 334.09,-215 340.09,-221 340.09,-227 340.09,-227 340.09,-239 340.09,-239 340.09,-245 334.09,-251 328.09,-251"/>
<text xml:space="preserve" text-anchor="middle" x="298.34" y="-229.5" font-family="Inter,Helvetica,Arial" font-size="10.00">CRP_VOL_INJ</text>
</g>
<!-- CRP_VOL_INJ&#45;&gt;CRM_DIM_B1 -->
<g id="edge14" class="edge">
<title>CRP_VOL_INJ&#45;&gt;CRM_DIM_B1</title>
<path fill="none" stroke="#455a64" stroke-width="1.2" d="M340.41,-244.63C388.81,-258.33 469.09,-281.05 520.18,-295.52"/>
<polygon fill="#455a64" stroke="#455a64" stroke-width="1.2" points="519.15,-298.14 527.61,-297.62 520.68,-292.75 519.15,-298.14"/>
<text xml:space="preserve" text-anchor="middle" x="434.93" y="-286.37" font-family="Inter,Helvetica,Arial" font-size="9.00">w=0.6223994196312581</text>
</g>
<!-- CRM_DIM_B2 -->
<g id="node19" class="node">
<title>CRM_DIM_B2</title>
<ellipse fill="#e3f2fd" stroke="#1565c0" cx="568.81" cy="-238" rx="48.41" ry="18"/>
<text xml:space="preserve" text-anchor="middle" x="568.81" y="-234.5" font-family="Inter,Helvetica,Arial" font-size="10.00">CRM_DIM_B2</text>
</g>
<!-- CRP_VOL_INJ&#45;&gt;CRM_DIM_B2 -->
<g id="edge15" class="edge">
<title>CRP_VOL_INJ&#45;&gt;CRM_DIM_B2</title>
<path fill="none" stroke="#455a64" stroke-width="1.2" d="M340.28,-232.03C378.25,-231.34 436.3,-230.79 486.68,-232.5 494.69,-232.77 503.14,-233.19 511.44,-233.68"/>
<polygon fill="#455a64" stroke="#455a64" stroke-width="1.2" points="511.1,-236.47 519.26,-234.18 511.45,-230.88 511.1,-236.47"/>
<text xml:space="preserve" text-anchor="middle" x="434.93" y="-234.45" font-family="Inter,Helvetica,Arial" font-size="9.00">w=0.7729101504499218</text>
</g>
<!-- CRP_VOL_INJ&#45;&gt;CRM_DIM_B3 -->
<g id="edge16" class="edge">
<title>CRP_VOL_INJ&#45;&gt;CRM_DIM_B3</title>
<path fill="none" stroke="#455a64" stroke-width="1.2" d="M340.49,-217.86C347.98,-213.83 355.28,-208.91 361.18,-203 377.05,-187.11 365.87,-171.82 383.18,-157.5 419.09,-127.79 471.15,-115.78 510.85,-110.99"/>
<polygon fill="#455a64" stroke="#455a64" stroke-width="1.2" points="510.95,-113.8 518.59,-110.15 510.34,-108.23 510.95,-113.8"/>
<text xml:space="preserve" text-anchor="middle" x="434.93" y="-159.45" font-family="Inter,Helvetica,Arial" font-size="9.00">w=0.6778751483393811</text>
</g>
<!-- CRP_CMP_MIX -->
<g id="node14" class="node">
<title>CRP_CMP_MIX</title>
<path fill="#e8f5e9" stroke="#2e7d32" d="M330.71,-577C330.71,-577 265.96,-577 265.96,-577 259.96,-577 253.96,-571 253.96,-565 253.96,-565 253.96,-553 253.96,-553 253.96,-547 259.96,-541 265.96,-541 265.96,-541 330.71,-541 330.71,-541 336.71,-541 342.71,-547 342.71,-553 342.71,-553 342.71,-565 342.71,-565 342.71,-571 336.71,-577 330.71,-577"/>
<text xml:space="preserve" text-anchor="middle" x="298.34" y="-555.5" font-family="Inter,Helvetica,Arial" font-size="10.00">CRP_CMP_MIX</text>
</g>
<!-- CRP_CMP_MIX&#45;&gt;CRM_DIM_C1 -->
<g id="edge17" class="edge">
<title>CRP_CMP_MIX&#45;&gt;CRM_DIM_C1</title>
<path fill="none" stroke="#455a64" stroke-width="1.2" d="M343.19,-552.46C356.05,-550.83 370.15,-549.31 383.18,-548.5 429.09,-545.64 440.68,-548.36 486.68,-548.5 494.29,-548.52 502.3,-548.56 510.21,-548.6"/>
<polygon fill="#455a64" stroke="#455a64" stroke-width="1.2" points="509.93,-551.4 517.95,-548.64 509.96,-545.8 509.93,-551.4"/>
<text xml:space="preserve" text-anchor="middle" x="434.93" y="-550.45" font-family="Inter,Helvetica,Arial" font-size="9.00">w=0.6675999093565447</text>
</g>
<!-- CRM_DIM_C2 -->
<g id="node22" class="node">
<title>CRM_DIM_C2</title>
<ellipse fill="#e3f2fd" stroke="#1565c0" cx="568.81" cy="-488" rx="48.86" ry="18"/>
<text xml:space="preserve" text-anchor="middle" x="568.81" y="-484.5" font-family="Inter,Helvetica,Arial" font-size="10.00">CRM_DIM_C2</text>
</g>
<!-- CRP_CMP_MIX&#45;&gt;CRM_DIM_C2 -->
<g id="edge18" class="edge">
<title>CRP_CMP_MIX&#45;&gt;CRM_DIM_C2</title>
<path fill="none" stroke="#455a64" stroke-width="1.2" d="M343.02,-543.22C355.88,-538.83 370.02,-534.24 383.18,-530.5 427.66,-517.86 478.97,-506.28 516.19,-498.42"/>
<polygon fill="#455a64" stroke="#455a64" stroke-width="1.2" points="516.31,-501.25 523.56,-496.87 515.16,-495.77 516.31,-501.25"/>
<text xml:space="preserve" text-anchor="middle" x="434.93" y="-532.45" font-family="Inter,Helvetica,Arial" font-size="9.00">w=0.8203826783509575</text>
</g>
<!-- CRP_CMP_MIX&#45;&gt;CRM_DIM_C3 -->
<g id="edge19" class="edge">
<title>CRP_CMP_MIX&#45;&gt;CRM_DIM_C3</title>
<path fill="none" stroke="#455a64" stroke-width="1.2" d="M343.07,-568.94C390.81,-579.78 467.14,-597.13 517.37,-608.54"/>
<polygon fill="#455a64" stroke="#455a64" stroke-width="1.2" points="516.55,-611.22 524.97,-610.27 517.79,-605.76 516.55,-611.22"/>
<text xml:space="preserve" text-anchor="middle" x="434.93" y="-602.22" font-family="Inter,Helvetica,Arial" font-size="9.00">w=0.8851016643781191</text>
</g>
<!-- 03471 -->
<g id="node29" class="node">
<title>03471</title>
<ellipse fill="#e3f2fd" stroke="#1565c0" cx="724.7" cy="-177" rx="27" ry="18"/>
<text xml:space="preserve" text-anchor="middle" x="724.7" y="-173.5" font-family="Inter,Helvetica,Arial" font-size="10.00">03471</text>
</g>
<!-- CRM_DIM_CHK&#45;&gt;03471 -->
<g id="edge20" class="edge">
<title>CRM_DIM_CHK&#45;&gt;03471</title>
<path fill="none" stroke="#455a64" stroke-width="1.2" d="M623.2,-177C644.64,-177 668.78,-177 688.02,-177"/>
<polygon fill="#455a64" stroke="#455a64" stroke-width="1.2" points="687.78,-179.8 695.78,-177 687.78,-174.2 687.78,-179.8"/>
<text xml:space="preserve" text-anchor="middle" x="663.32" y="-178.95" font-family="Inter,Helvetica,Arial" font-size="9.00">w=1.0</text>
</g>
<!-- 03461 -->
<g id="node27" class="node">
<title>03461</title>
<ellipse fill="#e3f2fd" stroke="#1565c0" cx="724.7" cy="-75" rx="27" ry="18"/>
<text xml:space="preserve" text-anchor="middle" x="724.7" y="-71.5" font-family="Inter,Helvetica,Arial" font-size="10.00">03461</text>
</g>
<!-- CRM_NDP_SCAN&#45;&gt;03461 -->
<g id="edge21" class="edge">
<title>CRM_NDP_SCAN&#45;&gt;03461</title>
<path fill="none" stroke="#455a64" stroke-width="1.2" d="M628.81,-49.37C644.2,-50.78 660.69,-53.01 675.7,-56.5 681.27,-57.8 687.06,-59.6 692.61,-61.58"/>
<polygon fill="#455a64" stroke="#455a64" stroke-width="1.2" points="691.47,-64.14 699.94,-64.37 693.46,-58.91 691.47,-64.14"/>
<text xml:space="preserve" text-anchor="middle" x="663.32" y="-58.45" font-family="Inter,Helvetica,Arial" font-size="9.00">w=1.0</text>
</g>
<!-- 03481 -->
<g id="node30" class="node">
<title>03481</title>
<ellipse fill="#e3f2fd" stroke="#1565c0" cx="724.7" cy="-662" rx="27" ry="18"/>
<text xml:space="preserve" text-anchor="middle" x="724.7" y="-658.5" font-family="Inter,Helvetica,Arial" font-size="10.00">03481</text>
</g>
<!-- CRM_DIM_A4&#45;&gt;03481 -->
<g id="edge22" class="edge">
<title>CRM_DIM_A4&#45;&gt;03481</title>
<path fill="none" stroke="#455a64" stroke-width="1.2" d="M612.68,-682.92C636.69,-678.4 666.26,-672.82 688.84,-668.57"/>
<polygon fill="#455a64" stroke="#455a64" stroke-width="1.2" points="689.24,-671.34 696.58,-667.11 688.2,-665.84 689.24,-671.34"/>
<text xml:space="preserve" text-anchor="middle" x="663.32" y="-677.58" font-family="Inter,Helvetica,Arial" font-size="9.00">w=1.0</text>
</g>
<!-- 03431 -->
<g id="node24" class="node">
<title>03431</title>
<ellipse fill="#e3f2fd" stroke="#1565c0" cx="724.7" cy="-309" rx="27" ry="18"/>
<text xml:space="preserve" text-anchor="middle" x="724.7" y="-305.5" font-family="Inter,Helvetica,Arial" font-size="10.00">03431</text>
</g>
<!-- CRM_DIM_B1&#45;&gt;03431 -->
<g id="edge23" class="edge">
<title>CRM_DIM_B1&#45;&gt;03431</title>
<path fill="none" stroke="#455a64" stroke-width="1.2" d="M617.66,-309C640.25,-309 666.77,-309 687.64,-309"/>
<polygon fill="#455a64" stroke="#455a64" stroke-width="1.2" points="687.57,-311.8 695.57,-309 687.57,-306.2 687.57,-311.8"/>
<text xml:space="preserve" text-anchor="middle" x="663.32" y="-310.95" font-family="Inter,Helvetica,Arial" font-size="9.00">w=1.0</text>
</g>
<!-- 03451 -->
<g id="node26" class="node">
<title>03451</title>
<ellipse fill="#e3f2fd" stroke="#1565c0" cx="724.7" cy="-238" rx="27" ry="18"/>
<text xml:space="preserve" text-anchor="middle" x="724.7" y="-234.5" font-family="Inter,Helvetica,Arial" font-size="10.00">03451</text>
</g>
<!-- CRM_DIM_B2&#45;&gt;03451 -->
<g id="edge24" class="edge">
<title>CRM_DIM_B2&#45;&gt;03451</title>
<path fill="none" stroke="#455a64" stroke-width="1.2" d="M617.66,-238C640.25,-238 666.77,-238 687.64,-238"/>
<polygon fill="#455a64" stroke="#455a64" stroke-width="1.2" points="687.57,-240.8 695.57,-238 687.57,-235.2 687.57,-240.8"/>
<text xml:space="preserve" text-anchor="middle" x="663.32" y="-239.95" font-family="Inter,Helvetica,Arial" font-size="9.00">w=1.0</text>
</g>
<!-- CRM_DIM_B3&#45;&gt;03461 -->
<g id="edge25" class="edge">
<title>CRM_DIM_B3&#45;&gt;03461</title>
<path fill="none" stroke="#455a64" stroke-width="1.2" d="M611.46,-99.07C635.76,-93.86 666.05,-87.36 689.04,-82.43"/>
<polygon fill="#455a64" stroke="#455a64" stroke-width="1.2" points="689.4,-85.22 696.63,-80.8 688.23,-79.74 689.4,-85.22"/>
<text xml:space="preserve" text-anchor="middle" x="663.32" y="-92.46" font-family="Inter,Helvetica,Arial" font-size="9.00">w=1.0</text>
</g>
<!-- CRM_DIM_C1&#45;&gt;03481 -->
<g id="edge26" class="edge">
<title>CRM_DIM_C1&#45;&gt;03481</title>
<path fill="none" stroke="#455a64" stroke-width="1.2" d="M613.74,-556.49C634.52,-561.9 658.48,-571.08 675.7,-586.5 692.43,-601.49 685.35,-613.24 697.7,-632 699.4,-634.59 701.31,-637.2 703.3,-639.73"/>
<polygon fill="#455a64" stroke="#455a64" stroke-width="1.2" points="700.95,-641.29 708.22,-645.65 705.26,-637.71 700.95,-641.29"/>
<text xml:space="preserve" text-anchor="middle" x="663.32" y="-588.45" font-family="Inter,Helvetica,Arial" font-size="9.00">w=1.0</text>
</g>
<!-- 03491 -->
<g id="node28" class="node">
<title>03491</title>
<ellipse fill="#e3f2fd" stroke="#1565c0" cx="724.7" cy="-488" rx="27" ry="18"/>
<text xml:space="preserve" text-anchor="middle" x="724.7" y="-484.5" font-family="Inter,Helvetica,Arial" font-size="10.00">03491</text>
</g>
<!-- CRM_DIM_C2&#45;&gt;03491 -->
<g id="edge27" class="edge">
<title>CRM_DIM_C2&#45;&gt;03491</title>
<path fill="none" stroke="#455a64" stroke-width="1.2" d="M618.08,-488C640.65,-488 667.07,-488 687.84,-488"/>
<polygon fill="#455a64" stroke="#455a64" stroke-width="1.2" points="687.72,-490.8 695.72,-488 687.72,-485.2 687.72,-490.8"/>
<text xml:space="preserve" text-anchor="middle" x="663.32" y="-489.95" font-family="Inter,Helvetica,Arial" font-size="9.00">w=1.0</text>
</g>
<!-- 03441 -->
<g id="node25" class="node">
<title>03441</title>
<ellipse fill="#e3f2fd" stroke="#1565c0" cx="724.7" cy="-601" rx="27" ry="18"/>
<text xml:space="preserve" text-anchor="middle" x="724.7" y="-597.5" font-family="Inter,Helvetica,Arial" font-size="10.00">03441</text>
</g>
<!-- CRM_DIM_C3&#45;&gt;03441 -->
<g id="edge29" class="edge">
<title>CRM_DIM_C3&#45;&gt;03441</title>
<path fill="none" stroke="#455a64" stroke-width="1.2" d="M612.2,-611.47C624.64,-609.23 638.3,-607.02 650.95,-605.5 662.92,-604.06 676.07,-603.07 687.85,-602.4"/>
<polygon fill="#455a64" stroke="#455a64" stroke-width="1.2" points="687.71,-605.21 695.55,-601.99 687.42,-599.61 687.71,-605.21"/>
<text xml:space="preserve" text-anchor="middle" x="663.32" y="-607.45" font-family="Inter,Helvetica,Arial" font-size="9.00">w=1.0</text>
</g>
<!-- CRM_DIM_C3&#45;&gt;03481 -->
<g id="edge28" class="edge">
<title>CRM_DIM_C3&#45;&gt;03481</title>
<path fill="none" stroke="#455a64" stroke-width="1.2" d="M609.04,-630.71C634.09,-637.54 666.21,-646.31 690.08,-652.83"/>
<polygon fill="#455a64" stroke="#455a64" stroke-width="1.2" points="689.23,-655.5 697.69,-654.9 690.71,-650.09 689.23,-655.5"/>
<text xml:space="preserve" text-anchor="middle" x="663.32" y="-650.36" font-family="Inter,Helvetica,Arial" font-size="9.00">w=1.0</text>
</g>
</g>
</svg>
