<?xml version="1.0" encoding="UTF-8" standalone="no"?>
<!DOCTYPE svg PUBLIC "-//W3C//DTD SVG 1.1//EN"
 "http://www.w3.org/Graphics/SVG/1.1/DTD/svg11.dtd">
<!-- Generated by graphviz version 13.1.2 (20250808.2320)
 -->
<!-- Title: Causal Pages: 1 -->
<svg width="755pt" height="173pt"
 viewBox="0.00 0.00 755.00 173.00" xmlns="http://www.w3.org/2000/svg" xmlns:xlink="http://www.w3.org/1999/xlink">
<g id="graph0" class="graph" transform="scale(1 1) rotate(0) translate(7.2 166.2)">
<title>Causal</title>
<polygon fill="white" stroke="none" points="-7.2,7.2 -7.2,-166.2 747.89,-166.2 747.89,7.2 -7.2,7.2"/>
<!-- PXF_THK_ADJ -->
<g id="node1" class="node">
<title>PXF_THK_ADJ</title>
<path fill="#e8f5e9" stroke="#2e7d32" d="M73.75,-98C73.75,-98 12,-98 12,-98 6,-98 0,-92 0,-86 0,-86 0,-74 0,-74 0,-68 6,-62 12,-62 12,-62 73.75,-62 73.75,-62 79.75,-62 85.75,-68 85.75,-74 85.75,-74 85.75,-86 85.75,-86 85.75,-92 79.75,-98 73.75,-98"/>
<text xml:space="preserve" text-anchor="middle" x="42.88" y="-76.5" font-family="Inter,Helvetica,Arial" font-size="10.00">PXF_THK_ADJ</text>
</g>
<!-- MXR_RGH_SCAN -->
<g id="node2" class="node">
<title>MXR_RGH_SCAN</title>
<ellipse fill="#e3f2fd" stroke="#1565c0" cx="213.13" cy="-80" rx="60.13" ry="18"/>
<text xml:space="preserve" text-anchor="middle" x="213.13" y="-76.5" font-family="Inter,Helvetica,Arial" font-size="10.00">MXR_RGH_SCAN</text>
</g>
<!-- PXF_THK_ADJ&#45;&gt;MXR_RGH_SCAN -->
<g id="edge1" class="edge">
<title>PXF_THK_ADJ&#45;&gt;MXR_RGH_SCAN</title>
<path fill="none" stroke="#455a64" stroke-width="1.2" d="M85.9,-80C103.14,-80 123.55,-80 142.88,-80"/>
<polygon fill="#455a64" stroke="#455a64" stroke-width="1.2" points="142.75,-82.8 150.75,-80 142.75,-77.2 142.75,-82.8"/>
<text xml:space="preserve" text-anchor="middle" x="119.38" y="-81.95" font-family="Inter,Helvetica,Arial" font-size="9.00">linear</text>
</g>
<!-- CRM_DIM_CHK -->
<g id="node4" class="node">
<title>CRM_DIM_CHK</title>
<ellipse fill="#e3f2fd" stroke="#1565c0" cx="394.79" cy="-140" rx="54.27" ry="18"/>
<text xml:space="preserve" text-anchor="middle" x="394.79" y="-136.5" font-family="Inter,Helvetica,Arial" font-size="10.00">CRM_DIM_CHK</text>
</g>
<!-- MXR_RGH_SCAN&#45;&gt;CRM_DIM_CHK -->
<g id="edge2" class="edge">
<title>MXR_RGH_SCAN&#45;&gt;CRM_DIM_CHK</title>
<path fill="none" stroke="#455a64" stroke-width="1.2" d="M254.45,-93.47C281.71,-102.57 317.81,-114.63 346.44,-124.19"/>
<polygon fill="#455a64" stroke="#455a64" stroke-width="1.2" points="345.25,-126.74 353.73,-126.62 347.03,-121.43 345.25,-126.74"/>
<text xml:space="preserve" text-anchor="middle" x="306.89" y="-115.54" font-family="Inter,Helvetica,Arial" font-size="9.00">linear</text>
</g>
<!-- CRM_DIM_P2 -->
<g id="node6" class="node">
<title>CRM_DIM_P2</title>
<ellipse fill="#e3f2fd" stroke="#1565c0" cx="394.79" cy="-18" rx="48.41" ry="18"/>
<text xml:space="preserve" text-anchor="middle" x="394.79" y="-14.5" font-family="Inter,Helvetica,Arial" font-size="10.00">CRM_DIM_P2</text>
</g>
<!-- MXR_RGH_SCAN&#45;&gt;CRM_DIM_P2 -->
<g id="edge3" class="edge">
<title>MXR_RGH_SCAN&#45;&gt;CRM_DIM_P2</title>
<path fill="none" stroke="#455a64" stroke-width="1.2" d="M253.56,-66.39C281.8,-56.65 319.87,-43.51 349.21,-33.38"/>
<polygon fill="#455a64" stroke="#455a64" stroke-width="1.2" points="350.05,-36.06 356.69,-30.8 348.22,-30.76 350.05,-36.06"/>
<text xml:space="preserve" text-anchor="middle" x="306.89" y="-52.81" font-family="Inter,Helvetica,Arial" font-size="9.00">linear</text>
</g>
<!-- CRP_EN_DRV -->
<g id="node3" class="node">
<title>CRP_EN_DRV</title>
<path fill="#e8f5e9" stroke="#2e7d32" d="M242.88,-159C242.88,-159 183.38,-159 183.38,-159 177.38,-159 171.38,-153 171.38,-147 171.38,-147 171.38,-135 171.38,-135 171.38,-129 177.38,-123 183.38,-123 183.38,-123 242.88,-123 242.88,-123 248.88,-123 254.88,-129 254.88,-135 254.88,-135 254.88,-147 254.88,-147 254.88,-153 248.88,-159 242.88,-159"/>
<text xml:space="preserve" text-anchor="middle" x="213.13" y="-137.5" font-family="Inter,Helvetica,Arial" font-size="10.00">CRP_EN_DRV</text>
</g>
<!-- CRP_EN_DRV&#45;&gt;CRM_DIM_CHK -->
<g id="edge4" class="edge">
<title>CRP_EN_DRV&#45;&gt;CRM_DIM_CHK</title>
<path fill="none" stroke="#455a64" stroke-width="1.2" d="M255.35,-140.77C277.57,-140.65 305.48,-140.49 330.4,-140.35"/>
<polygon fill="#455a64" stroke="#455a64" stroke-width="1.2" points="330.35,-143.15 338.33,-140.31 330.32,-137.55 330.35,-143.15"/>
<text xml:space="preserve" text-anchor="middle" x="306.89" y="-142.48" font-family="Inter,Helvetica,Arial" font-size="9.00">linear</text>
</g>
<!-- 03442 -->
<g id="node10" class="node">
<title>03442</title>
<ellipse fill="#e3f2fd" stroke="#1565c0" cx="567.87" cy="-140" rx="27" ry="18"/>
<text xml:space="preserve" text-anchor="middle" x="567.87" y="-136.5" font-family="Inter,Helvetica,Arial" font-size="10.00">03442</text>
</g>
<!-- CRM_DIM_CHK&#45;&gt;03442 -->
<g id="edge5" class="edge">
<title>CRM_DIM_CHK&#45;&gt;03442</title>
<path fill="none" stroke="#455a64" stroke-width="1.2" d="M449.45,-140C476.03,-140 507.41,-140 531.03,-140"/>
<polygon fill="#455a64" stroke="#455a64" stroke-width="1.2" points="530.83,-142.8 538.83,-140 530.83,-137.2 530.83,-142.8"/>
<text xml:space="preserve" text-anchor="middle" x="482.68" y="-141.95" font-family="Inter,Helvetica,Arial" font-size="9.00">linear</text>
</g>
<!-- CRP_SYN_DRV -->
<g id="node5" class="node">
<title>CRP_SYN_DRV</title>
<path fill="#e8f5e9" stroke="#2e7d32" d="M246.26,-36C246.26,-36 180.01,-36 180.01,-36 174.01,-36 168.01,-30 168.01,-24 168.01,-24 168.01,-12 168.01,-12 168.01,-6 174.01,0 180.01,0 180.01,0 246.26,0 246.26,0 252.26,0 258.26,-6 258.26,-12 258.26,-12 258.26,-24 258.26,-24 258.26,-30 252.26,-36 246.26,-36"/>
<text xml:space="preserve" text-anchor="middle" x="213.13" y="-14.5" font-family="Inter,Helvetica,Arial" font-size="10.00">CRP_SYN_DRV</text>
</g>
<!-- CRP_SYN_DRV&#45;&gt;CRM_DIM_P2 -->
<g id="edge6" class="edge">
<title>CRP_SYN_DRV&#45;&gt;CRM_DIM_P2</title>
<path fill="none" stroke="#455a64" stroke-width="1.2" d="M258.58,-17.63C277.11,-17.51 298.85,-17.43 318.52,-17.5 324.35,-17.52 330.43,-17.55 336.51,-17.58"/>
<polygon fill="#455a64" stroke="#455a64" stroke-width="1.2" points="336.17,-20.38 344.19,-17.62 336.21,-14.78 336.17,-20.38"/>
<text xml:space="preserve" text-anchor="middle" x="306.89" y="-19.45" font-family="Inter,Helvetica,Arial" font-size="9.00">linear</text>
</g>
<!-- PST_DIM_OUT -->
<g id="node8" class="node">
<title>PST_DIM_OUT</title>
<ellipse fill="#e3f2fd" stroke="#1565c0" cx="567.87" cy="-54" rx="51.56" ry="18"/>
<text xml:space="preserve" text-anchor="middle" x="567.87" y="-50.5" font-family="Inter,Helvetica,Arial" font-size="10.00">PST_DIM_OUT</text>
</g>
<!-- CRM_DIM_P2&#45;&gt;PST_DIM_OUT -->
<g id="edge7" class="edge">
<title>CRM_DIM_P2&#45;&gt;PST_DIM_OUT</title>
<path fill="none" stroke="#455a64" stroke-width="1.2" d="M437.64,-26.81C460.52,-31.62 489.1,-37.64 513.57,-42.78"/>
<polygon fill="#455a64" stroke="#455a64" stroke-width="1.2" points="512.88,-45.5 521.29,-44.41 514.04,-40.02 512.88,-45.5"/>
<text xml:space="preserve" text-anchor="middle" x="482.68" y="-40.11" font-family="Inter,Helvetica,Arial" font-size="9.00">linear</text>
</g>
<!-- PST_CYC_TIM -->
<g id="node7" class="node">
<title>PST_CYC_TIM</title>
<path fill="#e8f5e9" stroke="#2e7d32" d="M425.29,-97C425.29,-97 364.29,-97 364.29,-97 358.29,-97 352.29,-91 352.29,-85 352.29,-85 352.29,-73 352.29,-73 352.29,-67 358.29,-61 364.29,-61 364.29,-61 425.29,-61 425.29,-61 431.29,-61 437.29,-67 437.29,-73 437.29,-73 437.29,-85 437.29,-85 437.29,-91 431.29,-97 425.29,-97"/>
<text xml:space="preserve" text-anchor="middle" x="394.79" y="-75.5" font-family="Inter,Helvetica,Arial" font-size="10.00">PST_CYC_TIM</text>
</g>
<!-- PST_CYC_TIM&#45;&gt;PST_DIM_OUT -->
<g id="edge8" class="edge">
<title>PST_CYC_TIM&#45;&gt;PST_DIM_OUT</title>
<path fill="none" stroke="#455a64" stroke-width="1.2" d="M437.64,-72.88C459.46,-69.7 486.47,-65.75 510.15,-62.29"/>
<polygon fill="#455a64" stroke="#455a64" stroke-width="1.2" points="510.41,-65.08 517.92,-61.15 509.6,-59.54 510.41,-65.08"/>
<text xml:space="preserve" text-anchor="middle" x="482.68" y="-69.95" font-family="Inter,Helvetica,Arial" font-size="9.00">linear</text>
</g>
<!-- 03432 -->
<g id="node9" class="node">
<title>03432</title>
<ellipse fill="#e3f2fd" stroke="#1565c0" cx="713.69" cy="-54" rx="27" ry="18"/>
<text xml:space="preserve" text-anchor="middle" x="713.69" y="-50.5" font-family="Inter,Helvetica,Arial" font-size="10.00">03432</text>
</g>
<!-- PST_DIM_OUT&#45;&gt;03432 -->
<g id="edge9" class="edge">
<title>PST_DIM_OUT&#45;&gt;03432</title>
<path fill="none" stroke="#455a64" stroke-width="1.2" d="M619.58,-54C638.37,-54 659.29,-54 676.53,-54"/>
<polygon fill="#455a64" stroke="#455a64" stroke-width="1.2" points="676.39,-56.8 684.39,-54 676.39,-51.2 676.39,-56.8"/>
<text xml:space="preserve" text-anchor="middle" x="653.06" y="-55.95" font-family="Inter,Helvetica,Arial" font-size="9.00">linear</text>
</g>
</g>
</svg>
