<?xml version="1.0" encoding="UTF-8" standalone="no"?>
<!DOCTYPE svg PUBLIC "-//W3C//DTD SVG 1.1//EN"
 "http://www.w3.org/Graphics/SVG/1.1/DTD/svg11.dtd">
<!-- Generated by graphviz version 13.1.2 (20250808.2320)
 -->
<!-- Title: Causal Pages: 1 -->
<svg width="755pt" height="233pt"
 viewBox="0.00 0.00 755.00 233.00" xmlns="http://www.w3.org/2000/svg" xmlns:xlink="http://www.w3.org/1999/xlink">
<g id="graph0" class="graph" transform="scale(1 1) rotate(0) translate(7.2 226.2)">
<title>Causal</title>
<polygon fill="white" stroke="none" points="-7.2,7.2 -7.2,-226.2 747.89,-226.2 747.89,7.2 -7.2,7.2"/>
<!-- PXF_THK_ADJ -->
<g id="node1" class="node">
<title>PXF_THK_ADJ</title>
<path fill="#e8f5e9" stroke="#2e7d32" d="M73.75,-148C73.75,-148 12,-148 12,-148 6,-148 0,-142 0,-136 0,-136 0,-124 0,-124 0,-118 6,-112 12,-112 12,-112 73.75,-112 73.75,-112 79.75,-112 85.75,-118 85.75,-124 85.75,-124 85.75,-136 85.75,-136 85.75,-142 79.75,-148 73.75,-148"/>
<text xml:space="preserve" text-anchor="middle" x="42.88" y="-126.5" font-family="Inter,Helvetica,Arial" font-size="10.00">PXF_THK_ADJ</text>
</g>
<!-- MXR_RGH_SCAN -->
<g id="node2" class="node">
<title>MXR_RGH_SCAN</title>
<ellipse fill="#e3f2fd" stroke="#1565c0" cx="213.13" cy="-130" rx="60.13" ry="18"/>
<text xml:space="preserve" text-anchor="middle" x="213.13" y="-126.5" font-family="Inter,Helvetica,Arial" font-size="10.00">MXR_RGH_SCAN</text>
</g>
<!-- PXF_THK_ADJ&#45;&gt;MXR_RGH_SCAN -->
<g id="edge1" class="edge">
<title>PXF_THK_ADJ&#45;&gt;MXR_RGH_SCAN</title>
<path fill="none" stroke="#455a64" stroke-width="1.2" d="M85.9,-130C103.14,-130 123.55,-130 142.88,-130"/>
<polygon fill="#455a64" stroke="#455a64" stroke-width="1.2" points="142.75,-132.8 150.75,-130 142.75,-127.2 142.75,-132.8"/>
<text xml:space="preserve" text-anchor="middle" x="119.38" y="-131.95" font-family="Inter,Helvetica,Arial" font-size="9.00">linear</text>
</g>
<!-- CRM_DIM_CHK -->
<g id="node4" class="node">
<title>CRM_DIM_CHK</title>
<ellipse fill="#e3f2fd" stroke="#1565c0" cx="394.79" cy="-201" rx="54.27" ry="18"/>
<text xml:space="preserve" text-anchor="middle" x="394.79" y="-197.5" font-family="Inter,Helvetica,Arial" font-size="10.00">CRM_DIM_CHK</text>
</g>
<!-- MXR_RGH_SCAN&#45;&gt;CRM_DIM_CHK -->
<g id="edge2" class="edge">
<title>MXR_RGH_SCAN&#45;&gt;CRM_DIM_CHK</title>
<path fill="none" stroke="#455a64" stroke-width="1.2" d="M250.49,-144.37C279.11,-155.68 319.11,-171.49 349.58,-183.53"/>
<polygon fill="#455a64" stroke="#455a64" stroke-width="1.2" points="348.55,-186.13 357.02,-186.47 350.61,-180.92 348.55,-186.13"/>
<text xml:space="preserve" text-anchor="middle" x="306.89" y="-171.7" font-family="Inter,Helvetica,Arial" font-size="9.00">linear</text>
</g>
<!-- CRM_DIM_P2 -->
<g id="node6" class="node">
<title>CRM_DIM_P2</title>
<ellipse fill="#e3f2fd" stroke="#1565c0" cx="394.79" cy="-18" rx="48.41" ry="18"/>
<text xml:space="preserve" text-anchor="middle" x="394.79" y="-14.5" font-family="Inter,Helvetica,Arial" font-size="10.00">CRM_DIM_P2</text>
</g>
<!-- MXR_RGH_SCAN&#45;&gt;CRM_DIM_P2 -->
<g id="edge3" class="edge">
<title>MXR_RGH_SCAN&#45;&gt;CRM_DIM_P2</title>
<path fill="none" stroke="#455a64" stroke-width="1.2" d="M239.11,-113.54C264.46,-96.95 304.94,-70.74 340.52,-49 346.42,-45.39 352.73,-41.63 358.88,-38.03"/>
<polygon fill="#455a64" stroke="#455a64" stroke-width="1.2" points="360.03,-40.6 365.53,-34.15 357.21,-35.76 360.03,-40.6"/>
<text xml:space="preserve" text-anchor="middle" x="306.89" y="-77.17" font-family="Inter,Helvetica,Arial" font-size="9.00">linear</text>
</g>
<!-- CRP_EN_DRV -->
<g id="node3" class="node">
<title>CRP_EN_DRV</title>
<path fill="#e8f5e9" stroke="#2e7d32" d="M242.88,-219C242.88,-219 183.38,-219 183.38,-219 177.38,-219 171.38,-213 171.38,-207 171.38,-207 171.38,-195 171.38,-195 171.38,-189 177.38,-183 183.38,-183 183.38,-183 242.88,-183 242.88,-183 248.88,-183 254.88,-189 254.88,-195 254.88,-195 254.88,-207 254.88,-207 254.88,-213 248.88,-219 242.88,-219"/>
<text xml:space="preserve" text-anchor="middle" x="213.13" y="-197.5" font-family="Inter,Helvetica,Arial" font-size="10.00">CRP_EN_DRV</text>
</g>
<!-- CRP_EN_DRV&#45;&gt;CRM_DIM_CHK -->
<g id="edge4" class="edge">
<title>CRP_EN_DRV&#45;&gt;CRM_DIM_CHK</title>
<path fill="none" stroke="#455a64" stroke-width="1.2" d="M255.35,-201C277.57,-201 305.48,-201 330.4,-201"/>
<polygon fill="#455a64" stroke="#455a64" stroke-width="1.2" points="330.33,-203.8 338.33,-201 330.33,-198.2 330.33,-203.8"/>
<text xml:space="preserve" text-anchor="middle" x="306.89" y="-202.95" font-family="Inter,Helvetica,Arial" font-size="9.00">linear</text>
</g>
<!-- 03442 -->
<g id="node11" class="node">
<title>03442</title>
<ellipse fill="#e3f2fd" stroke="#1565c0" cx="567.87" cy="-165" rx="27" ry="18"/>
<text xml:space="preserve" text-anchor="middle" x="567.87" y="-161.5" font-family="Inter,Helvetica,Arial" font-size="10.00">03442</text>
</g>
<!-- CRM_DIM_CHK&#45;&gt;03442 -->
<g id="edge5" class="edge">
<title>CRM_DIM_CHK&#45;&gt;03442</title>
<path fill="none" stroke="#455a64" stroke-width="1.2" d="M441.19,-191.45C469.8,-185.43 506.17,-177.77 532.42,-172.25"/>
<polygon fill="#455a64" stroke="#455a64" stroke-width="1.2" points="532.91,-175.01 540.16,-170.62 531.76,-169.53 532.91,-175.01"/>
<text xml:space="preserve" text-anchor="middle" x="482.68" y="-187.11" font-family="Inter,Helvetica,Arial" font-size="9.00">linear</text>
</g>
<!-- CRP_SYN_DRV -->
<g id="node5" class="node">
<title>CRP_SYN_DRV</title>
<path fill="#e8f5e9" stroke="#2e7d32" d="M246.26,-36C246.26,-36 180.01,-36 180.01,-36 174.01,-36 168.01,-30 168.01,-24 168.01,-24 168.01,-12 168.01,-12 168.01,-6 174.01,0 180.01,0 180.01,0 246.26,0 246.26,0 252.26,0 258.26,-6 258.26,-12 258.26,-12 258.26,-24 258.26,-24 258.26,-30 252.26,-36 246.26,-36"/>
<text xml:space="preserve" text-anchor="middle" x="213.13" y="-14.5" font-family="Inter,Helvetica,Arial" font-size="10.00">CRP_SYN_DRV</text>
</g>
<!-- CRP_SYN_DRV&#45;&gt;CRM_DIM_P2 -->
<g id="edge6" class="edge">
<title>CRP_SYN_DRV&#45;&gt;CRM_DIM_P2</title>
<path fill="none" stroke="#455a64" stroke-width="1.2" d="M258.54,-18C282.03,-18 311.13,-18 336.32,-18"/>
<polygon fill="#455a64" stroke="#455a64" stroke-width="1.2" points="336.3,-20.8 344.3,-18 336.3,-15.2 336.3,-20.8"/>
<text xml:space="preserve" text-anchor="middle" x="306.89" y="-19.95" font-family="Inter,Helvetica,Arial" font-size="9.00">linear</text>
</g>
<!-- PST_DIM_OUT -->
<g id="node8" class="node">
<title>PST_DIM_OUT</title>
<ellipse fill="#e3f2fd" stroke="#1565c0" cx="567.87" cy="-54" rx="51.56" ry="18"/>
<text xml:space="preserve" text-anchor="middle" x="567.87" y="-50.5" font-family="Inter,Helvetica,Arial" font-size="10.00">PST_DIM_OUT</text>
</g>
<!-- CRM_DIM_P2&#45;&gt;PST_DIM_OUT -->
<g id="edge7" class="edge">
<title>CRM_DIM_P2&#45;&gt;PST_DIM_OUT</title>
<path fill="none" stroke="#455a64" stroke-width="1.2" d="M437.64,-26.81C460.52,-31.62 489.1,-37.64 513.57,-42.78"/>
<polygon fill="#455a64" stroke="#455a64" stroke-width="1.2" points="512.88,-45.5 521.29,-44.41 514.04,-40.02 512.88,-45.5"/>
<text xml:space="preserve" text-anchor="middle" x="482.68" y="-40.11" font-family="Inter,Helvetica,Arial" font-size="9.00">linear</text>
</g>
<!-- PST_CYC_TIM -->
<g id="node7" class="node">
<title>PST_CYC_TIM</title>
<path fill="#e8f5e9" stroke="#2e7d32" d="M425.29,-97C425.29,-97 364.29,-97 364.29,-97 358.29,-97 352.29,-91 352.29,-85 352.29,-85 352.29,-73 352.29,-73 352.29,-67 358.29,-61 364.29,-61 364.29,-61 425.29,-61 425.29,-61 431.29,-61 437.29,-67 437.29,-73 437.29,-73 437.29,-85 437.29,-85 437.29,-91 431.29,-97 425.29,-97"/>
<text xml:space="preserve" text-anchor="middle" x="394.79" y="-75.5" font-family="Inter,Helvetica,Arial" font-size="10.00">PST_CYC_TIM</text>
</g>
<!-- PST_CYC_TIM&#45;&gt;PST_DIM_OUT -->
<g id="edge8" class="edge">
<title>PST_CYC_TIM&#45;&gt;PST_DIM_OUT</title>
<path fill="none" stroke="#455a64" stroke-width="1.2" d="M437.64,-72.88C459.46,-69.7 486.47,-65.75 510.15,-62.29"/>
<polygon fill="#455a64" stroke="#455a64" stroke-width="1.2" points="510.41,-65.08 517.92,-61.15 509.6,-59.54 510.41,-65.08"/>
<text xml:space="preserve" text-anchor="middle" x="482.68" y="-69.95" font-family="Inter,Helvetica,Arial" font-size="9.00">linear</text>
</g>
<!-- 03432 -->
<g id="node10" class="node">
<title>03432</title>
<ellipse fill="#e3f2fd" stroke="#1565c0" cx="713.69" cy="-54" rx="27" ry="18"/>
<text xml:space="preserve" text-anchor="middle" x="713.69" y="-50.5" font-family="Inter,Helvetica,Arial" font-size="10.00">03432</text>
</g>
<!-- PST_DIM_OUT&#45;&gt;03432 -->
<g id="edge9" class="edge">
<title>PST_DIM_OUT&#45;&gt;03432</title>
<path fill="none" stroke="#455a64" stroke-width="1.2" d="M619.58,-54C638.37,-54 659.29,-54 676.53,-54"/>
<polygon fill="#455a64" stroke="#455a64" stroke-width="1.2" points="676.39,-56.8 684.39,-54 676.39,-51.2 676.39,-56.8"/>
<text xml:space="preserve" text-anchor="middle" x="653.06" y="-55.95" font-family="Inter,Helvetica,Arial" font-size="9.00">linear</text>
</g>
<!-- Bond_ZOffset -->
<g id="node9" class="node">
<title>Bond_ZOffset</title>
<ellipse fill="#e3f2fd" stroke="#1565c0" cx="394.79" cy="-140" rx="45.7" ry="18"/>
<text xml:space="preserve" text-anchor="middle" x="394.79" y="-136.5" font-family="Inter,Helvetica,Arial" font-size="10.00">Bond_ZOffset</text>
</g>
<!-- Bond_ZOffset&#45;&gt;03442 -->
<g id="edge10" class="edge">
<title>Bond_ZOffset&#45;&gt;03442</title>
<path fill="none" stroke="#455a64" stroke-width="1.2" d="M440.06,-143.18C457.08,-144.69 476.65,-146.77 494.31,-149.5 506.97,-151.46 520.74,-154.23 532.85,-156.89"/>
<polygon fill="#455a64" stroke="#455a64" stroke-width="1.2" points="531.96,-159.56 540.38,-158.59 533.19,-154.1 531.96,-159.56"/>
<text xml:space="preserve" text-anchor="middle" x="482.68" y="-151.45" font-family="Inter,Helvetica,Arial" font-size="9.00">linear</text>
</g>
</g>
</svg>
