<?xml version="1.0" encoding="UTF-8" standalone="no"?>
<!DOCTYPE svg PUBLIC "-//W3C//DTD SVG 1.1//EN"
 "http://www.w3.org/Graphics/SVG/1.1/DTD/svg11.dtd">
<!-- Generated by graphviz version 13.1.2 (20250808.2320)
 -->
<!-- Title: Causal Pages: 1 -->
<svg width="290pt" height="172pt"
 viewBox="0.00 0.00 290.00 172.00" xmlns="http://www.w3.org/2000/svg" xmlns:xlink="http://www.w3.org/1999/xlink">
<g id="graph0" class="graph" transform="scale(1 1) rotate(0) translate(7.2 165.2)">
<title>Causal</title>
<polygon fill="white" stroke="none" points="-7.2,7.2 -7.2,-165.2 282.89,-165.2 282.89,7.2 -7.2,7.2"/>
<!-- mdsim_PX1_CRM_DIM_A1 -->
<g id="node1" class="node">
<title>mdsim_PX1_CRM_DIM_A1</title>
<path fill="#e8f5e9" stroke="#2e7d32" d="M130,-97C130,-97 15,-97 15,-97 9,-97 3,-91 3,-85 3,-85 3,-73 3,-73 3,-67 9,-61 15,-61 15,-61 130,-61 130,-61 136,-61 142,-67 142,-73 142,-73 142,-85 142,-85 142,-91 136,-97 130,-97"/>
<text xml:space="preserve" text-anchor="middle" x="72.5" y="-75.5" font-family="Inter,Helvetica,Arial" font-size="10.00">mdsim_PX1_CRM_DIM_A1</text>
</g>
<!-- 0012291 -->
<g id="node4" class="node">
<title>0012291</title>
<ellipse fill="#e3f2fd" stroke="#1565c0" cx="243.97" cy="-49" rx="31.72" ry="18"/>
<text xml:space="preserve" text-anchor="middle" x="243.97" y="-45.5" font-family="Inter,Helvetica,Arial" font-size="10.00">0012291</text>
</g>
<!-- mdsim_PX1_CRM_DIM_A1&#45;&gt;0012291 -->
<g id="edge1" class="edge">
<title>mdsim_PX1_CRM_DIM_A1&#45;&gt;0012291</title>
<path fill="none" stroke="#455a64" stroke-width="1.2" d="M142.43,-66.8C163.4,-63.09 185.72,-59.14 203.98,-55.9"/>
<polygon fill="#455a64" stroke="#455a64" stroke-width="1.2" points="204.22,-58.7 211.61,-54.55 203.25,-53.19 204.22,-58.7"/>
<text xml:space="preserve" text-anchor="middle" x="178.62" y="-64.15" font-family="Inter,Helvetica,Arial" font-size="9.00">linear</text>
</g>
<!-- mdsim_PX1_CRP_RAT_CTL -->
<g id="node2" class="node">
<title>mdsim_PX1_CRP_RAT_CTL</title>
<path fill="#e8f5e9" stroke="#2e7d32" d="M133,-158C133,-158 12,-158 12,-158 6,-158 0,-152 0,-146 0,-146 0,-134 0,-134 0,-128 6,-122 12,-122 12,-122 133,-122 133,-122 139,-122 145,-128 145,-134 145,-134 145,-146 145,-146 145,-152 139,-158 133,-158"/>
<text xml:space="preserve" text-anchor="middle" x="72.5" y="-136.5" font-family="Inter,Helvetica,Arial" font-size="10.00">mdsim_PX1_CRP_RAT_CTL</text>
</g>
<!-- 0012311 -->
<g id="node5" class="node">
<title>0012311</title>
<ellipse fill="#e3f2fd" stroke="#1565c0" cx="243.97" cy="-140" rx="31.27" ry="18"/>
<text xml:space="preserve" text-anchor="middle" x="243.97" y="-136.5" font-family="Inter,Helvetica,Arial" font-size="10.00">0012311</text>
</g>
<!-- mdsim_PX1_CRP_RAT_CTL&#45;&gt;0012311 -->
<g id="edge2" class="edge">
<title>mdsim_PX1_CRP_RAT_CTL&#45;&gt;0012311</title>
<path fill="none" stroke="#455a64" stroke-width="1.2" d="M145.37,-140C164.98,-140 185.53,-140 202.68,-140"/>
<polygon fill="#455a64" stroke="#455a64" stroke-width="1.2" points="202.54,-142.8 210.54,-140 202.54,-137.2 202.54,-142.8"/>
<text xml:space="preserve" text-anchor="middle" x="178.62" y="-141.95" font-family="Inter,Helvetica,Arial" font-size="9.00">linear</text>
</g>
<!-- mdsim_PX2_PST_CYC_TIM -->
<g id="node3" class="node">
<title>mdsim_PX2_PST_CYC_TIM</title>
<path fill="#e8f5e9" stroke="#2e7d32" d="M132.25,-36C132.25,-36 12.75,-36 12.75,-36 6.75,-36 0.75,-30 0.75,-24 0.75,-24 0.75,-12 0.75,-12 0.75,-6 6.75,0 12.75,0 12.75,0 132.25,0 132.25,0 138.25,0 144.25,-6 144.25,-12 144.25,-12 144.25,-24 144.25,-24 144.25,-30 138.25,-36 132.25,-36"/>
<text xml:space="preserve" text-anchor="middle" x="72.5" y="-14.5" font-family="Inter,Helvetica,Arial" font-size="10.00">mdsim_PX2_PST_CYC_TIM</text>
</g>
<!-- mdsim_PX2_PST_CYC_TIM&#45;&gt;0012291 -->
<g id="edge3" class="edge">
<title>mdsim_PX2_PST_CYC_TIM&#45;&gt;0012291</title>
<path fill="none" stroke="#455a64" stroke-width="1.2" d="M144.39,-30.97C164.75,-34.69 186.2,-38.62 203.87,-41.85"/>
<polygon fill="#455a64" stroke="#455a64" stroke-width="1.2" points="203.12,-44.56 211.49,-43.24 204.12,-39.05 203.12,-44.56"/>
<text xml:space="preserve" text-anchor="middle" x="178.62" y="-40.92" font-family="Inter,Helvetica,Arial" font-size="9.00">linear</text>
</g>
</g>
</svg>
